<?xml version="1.0" encoding="utf-8"?>
<!-- Generator: Adobe Illustrator 16.0.3, SVG Export Plug-In . SVG Version: 6.00 Build 0)  -->
<!DOCTYPE svg PUBLIC "-//W3C//DTD SVG 1.1//EN" "http://www.w3.org/Graphics/SVG/1.1/DTD/svg11.dtd">
<svg version="1.1" id="Vrstva_1" xmlns="http://www.w3.org/2000/svg" xmlns:xlink="http://www.w3.org/1999/xlink" x="0px" y="0px"
	 width="300px" height="300px" viewBox="0 0 300 300" enable-background="new 0 0 300 300" xml:space="preserve">
<rect y="0.16" fill="#FFED00" width="300" height="300"/>
<rect x="-543.26" y="-728.992" fill="none" width="1488.188" height="1052.363"/>
<rect x="-543.26" y="-728.989" fill="none" width="1488.188" height="1052.36"/>
<g>
	<polygon fill-rule="evenodd" clip-rule="evenodd" fill="#E40B14" points="51.525,107.298 249.246,107.298 249.246,193.021 
		51.525,193.021 51.525,107.298 	"/>
	<path fill-rule="evenodd" clip-rule="evenodd" fill="#FFEC00" d="M149.706,162.563h10.362c0,5.338,0,7.641,0,13.92
		c0,0-14.025,0-25.644,0c0-17.374,0-20.096,0-52.648c9.943,0,10.258,0,15.282,0C149.706,123.835,149.706,149.479,149.706,162.563
		L149.706,162.563z"/>
	<path fill-rule="evenodd" clip-rule="evenodd" fill="#FFEC00" d="M128.248,176.483c-5.233,0-8.583,0-15.491,0
		c0-14.862,0-52.648,0-52.648c7.117,0,10.676,0,15.491,0C128.248,123.835,128.248,159.423,128.248,176.483L128.248,176.483z"/>
	<path fill-rule="evenodd" clip-rule="evenodd" fill="#FFEC00" d="M179.118,162.563h10.362c0,5.338,0,7.641,0,13.92
		c0,0-13.921,0-25.54,0c0-17.374,0-20.096,0-52.648c9.943,0,10.152,0,15.178,0C179.118,123.835,179.118,149.479,179.118,162.563
		L179.118,162.563z"/>
	<g>
		<g>
			<path fill-rule="evenodd" clip-rule="evenodd" fill="#FFEC00" d="M103.127,150.212c2.931-3.977,4.396-9.106,3.35-14.339
				c-0.942-4.71-4.396-9.629-9.525-10.99c-2.512-0.628-5.024-0.942-9.002-1.047l-23.597-0.013v52.654l22.446,0.007
				c4.082-0.104,8.164,0.314,11.409-1.15c5.652-2.617,9.838-6.699,9.943-13.293C108.256,157.329,106.582,153.143,103.127,150.212z
				 M81.461,137.756h5.024c0.733,0.105,1.361,0,2.093,0.209c1.361,0.314,2.198,1.361,2.198,2.198c0,1.465-1.046,2.512-2.198,2.616
				c-0.313,0.105-1.36,0.209-1.884,0.209h-5.233V137.756z M89.521,161.83c-0.314,0.104-1.256,0.21-1.78,0.21h-6.28v-5.233h6.28
				c0.733,0,1.256-0.104,2.094,0.209c1.256,0.523,1.675,1.675,1.675,2.513C91.509,160.889,90.567,161.621,89.521,161.83z"/>
		</g>
	</g>
	<g>
		<g>
			<path fill-rule="evenodd" clip-rule="evenodd" fill="#FFEC00" d="M222.451,123.835H206.75
				c-5.442,19.992-8.373,31.611-14.235,52.648h14.863c0.523-1.569,1.048-3.558,1.674-5.651h11.097
				c0.627,2.407,0.836,3.559,1.57,5.651h14.862C231.871,158.585,228.835,146.549,222.451,123.835z M212.508,159.946l2.302-7.327
				c1.36,3.769,1.884,5.024,2.722,7.327H212.508z"/>
		</g>
	</g>
</g>
</svg>
