<?xml version="1.0" encoding="utf-8"?>
<!-- Generator: Adobe Illustrator 28.0.0, SVG Export Plug-In . SVG Version: 6.00 Build 0)  -->
<svg version="1.1" id="Layer_1" xmlns="http://www.w3.org/2000/svg" xmlns:xlink="http://www.w3.org/1999/xlink" x="0px" y="0px"
	 viewBox="0 0 316.98 288.63" style="enable-background:new 0 0 316.98 288.63;" xml:space="preserve">
<style type="text/css">
	.st0{stroke:#FFFFFF;stroke-miterlimit:10;}
	.st1{stroke:#FFFFFF;stroke-width:5;stroke-miterlimit:10;}
	.st2{fill:#FF623B;}
	.st3{fill:#00975D;stroke:#FFFFFF;stroke-miterlimit:10;}
	.st4{fill:#00975D;stroke:#FFFFFF;stroke-width:5;stroke-miterlimit:10;}
	.st5{fill:#FFFFFF;}
</style>
<g>
	<path d="M139.3,100.69c-9.82,14.29-18.47,27.11-29.12,29.95c-3-0.51-6.66,0-10.81,1.66c10.65-25.45,24.46-38.59,32.27-40.44
		c-10.81-8.99-52.91-7.81-67.89,16.3c-12.15,19.13,7.33,31.12,16.81,17.66c-6.82,0.83-9.79-2.84-5.65-14
		c6.98-18.3,33.26-24.62,45.41-19.13c-11.48,3.83-22.29,16.65-35.75,41.11c-11.67,21.14-21.65,39.77-32.78,39.61
		c-5.33,0-8.32-3.51-7.65-6.34c1.15-5.49,7.47-5.97,14.48-1.82c-1.85-9.15-18.3-9.82-21.97,1.5c-2.68,7.49,1.82,19.13,17.47,19.13
		c16.3,0,31.28-17.96,43.09-48.41l0.83-2.17c12.82-1.66,16.48,7.65,11.99,20.28c-5.33,14.83-5.16,27.46,5.49,27.46
		c7.68,0,14.77-7.06,21.54-17.5c4.39-6.74,8.64-14.88,12.9-23.42c0-0.11-0.03-0.21-0.05-0.32c-2.11,2.27-4.15,4.92-5.99,7.95
		c-0.05,0.08-0.11,0.16-0.13,0.24c-0.7,1.28-1.42,2.54-2.17,3.77c-6.13,10.38-12.58,18.3-16.94,18.3
		c-4.66-0.51-3.16-9.66-2.49-25.96c0.16-5.49-2.01-11.16-6.82-13.97c14.64-1.18,26.44-14.99,33.77-23.47
		c8.8-10.3,19.29-14.96,29.12-10.65C172.08,86.69,151.45,83.22,139.3,100.69z"/>
	<path d="M189.21,143.05c-2.68,3.05-6.8,4.31-11.29,3.43c1.79-9.87-2.14-14.88-9.5-14.72c-6.32,0.35-12.79,3.8-18.52,10.04
		c-2.11,2.27-4.15,4.92-5.99,7.95c-0.05,0.08-0.11,0.16-0.13,0.24c-0.7,1.28-1.42,2.54-2.17,3.77c-0.35,0.62-0.64,1.23-0.96,1.85
		c-1.69,3.4-2.89,6.77-3.59,9.93c-2.19,9.66,0.21,17.34,7.52,17.88c10.76,0.72,22.59-9.34,29.22-24.03
		c1.45-3.24,2.52-6.26,3.24-8.97c5.19,0.35,10.57-2.14,13.97-6.45C191.38,142.89,190.12,142.52,189.21,143.05z M167.35,155.98
		c-5.19,13.43-9.69,19-13.09,19c-4.66,0-5.19-8.43-0.19-20.63c5.75-13.62,10.41-19.16,14.16-19.16
		C170.93,135.19,172.91,141.26,167.35,155.98z"/>
	<path d="M179.18,163.32l32.1-66.7h12.19l-31.56,67.78c-1.97,4.84-4.84,8.96-1.79,8.96c4.3,0,15.24-13.27,23.31-30.3
		c0.9-0.54,1.97-0.18,1.79,0.9c-11.48,23.49-23.85,39.81-32.09,39.81C173.8,183.77,173.8,173.72,179.18,163.32z"/>
	<path d="M203.38,163.32l14.34-29.23h12.19l-13.81,30.3c-1.97,4.84-4.84,8.96-1.79,8.96c4.3,0,15.24-13.27,23.31-30.3
		c0.9-0.54,1.97-0.18,1.79,0.9c-11.48,23.49-23.85,39.81-32.09,39.81C198,183.77,198,173.72,203.38,163.32z M220.24,119.93
		c0-4.48,3.59-8.07,8.07-8.07s8.07,3.59,8.07,8.07c0,4.48-3.59,8.07-8.07,8.07S220.24,124.42,220.24,119.93z"/>
	<path d="M242.29,159.92l-10.04,22.77h-12.01l37.48-86.07h12.55L250,142.7c5.38-6.63,11.11-10.76,17.75-10.76
		c12.91,0.18,9.86,22.95-14.16,25.82c5.38,5.56,3.77,14.53,8.96,14.53c4.66,0,13.81-12.19,21.88-29.23c0.9-0.54,1.97-0.18,1.79,0.9
		c-11.48,23.49-22.59,39.81-30.84,39.81C244.44,183.77,247.67,161.17,242.29,159.92z M249.82,156.87
		c14.16-3.94,14.16-14.16,10.22-15.06c-2.69-0.72-10.4,2.33-13.99,9.68l-2.69,6.1C245.7,157.41,248.21,157.41,249.82,156.87z"/>
</g>
</svg>
